name C:\Users\u0101727\Documents\MyRepositories\upper-imu-dc\Results\main_mocap_tracking\Case_13\FLX01_angularVelocities_groundFrame.mot
datacolumns 4
datarows 100
range 1.510000 2.500000
endheader 
time	radius_imu_x	radius_imu_y	radius_imu_z	
          1.51000000	         -1.77437795	          0.84140970	          0.66221439	
          1.52000000	         -1.62927060	          0.75445703	          0.68349018	
          1.53000000	         -1.44322798	          0.67081198	          0.73717464	
          1.54000000	         -1.26720247	          0.59304897	          0.78431913	
          1.55000000	         -1.08475715	          0.52236040	          0.83200111	
          1.56000000	         -0.91072157	          0.46002393	          0.87597537	
          1.57000000	         -0.75252130	          0.40696907	          0.91603589	
          1.58000000	         -0.62333904	          0.36337963	          0.94922218	
          1.59000000	         -0.53276688	          0.32871540	          0.97281952	
          1.60000000	         -0.48068270	          0.30176016	          0.98557995	
          1.61000000	         -0.46496799	          0.28097555	          0.98833452	
          1.62000000	         -0.47576764	          0.26473138	          0.98395766	
          1.63000000	         -0.49790416	          0.25232719	          0.97684496	
          1.64000000	         -0.51391268	          0.24340064	          0.96895755	
          1.65000000	         -0.50432102	          0.23733012	          0.96767074	
          1.66000000	         -0.47123212	          0.23472748	          0.97105107	
          1.67000000	         -0.42660589	          0.23484831	          0.97724525	
          1.68000000	         -0.39550231	          0.23514414	          0.98082885	
          1.69000000	         -0.39681222	          0.23270581	          0.97773903	
          1.70000000	         -0.43577581	          0.22529911	          0.96741289	
          1.71000000	         -0.50362535	          0.21212280	          0.95257750	
          1.72000000	         -0.58636718	          0.19344443	          0.93688702	
          1.73000000	         -0.67403296	          0.16973087	          0.92255482	
          1.74000000	         -0.76715300	          0.14045869	          0.90882437	
          1.75000000	         -0.87555137	          0.10369081	          0.89247486	
          1.76000000	         -1.00946356	          0.05707032	          0.87028990	
          1.77000000	         -1.16934004	         -0.00034621	          0.84176073	
          1.78000000	         -1.34191251	         -0.06677465	          0.81005677	
          1.79000000	         -1.50452967	         -0.13780298	          0.78082919	
          1.80000000	         -1.63382253	         -0.20771863	          0.75993778	
          1.81000000	         -1.71344946	         -0.27122983	          0.75144551	
          1.82000000	         -1.73721565	         -0.32462964	          0.75679985	
          1.83000000	         -1.70695500	         -0.36587408	          0.77536245	
          1.84000000	         -1.62867087	         -0.39405630	          0.80540787	
          1.85000000	         -1.51111121	         -0.40927788	          0.84451271	
          1.86000000	         -1.36669228	         -0.41310470	          0.88933503	
          1.87000000	         -1.21136672	         -0.40879224	          0.93564254	
          1.88000000	         -1.06142805	         -0.40054987	          0.97911399	
          1.89000000	         -0.92865928	         -0.39201113	          1.01658710	
          1.90000000	         -0.81735693	         -0.38494592	          1.04685805	
          1.91000000	         -0.72543569	         -0.37916798	          1.07042920	
          1.92000000	         -0.64770949	         -0.37332225	          1.08867722	
          1.93000000	         -0.57780060	         -0.36539493	          1.10339595	
          1.94000000	         -0.50835370	         -0.35268568	          1.11681411	
          1.95000000	         -0.43262597	         -0.33236580	          1.13121046	
          1.96000000	         -0.34915937	         -0.30351845	          1.14756933	
          1.97000000	         -0.26657600	         -0.26966936	          1.16405487	
          1.98000000	         -0.20367094	         -0.23959606	          1.17572489	
          1.99000000	         -0.18316393	         -0.22513736	          1.17609363	
          2.00000000	         -0.22201783	         -0.23675056	          1.15985121	
          2.01000000	         -0.32362477	         -0.27911985	          1.12525528	
          2.02000000	         -0.47572496	         -0.34901871	          1.07500484	
          2.03000000	         -0.65383250	         -0.43591589	          1.01555703	
          2.04000000	         -0.82781576	         -0.52462809	          0.95546479	
          2.05000000	         -0.96984470	         -0.59937030	          0.90313718	
          2.06000000	         -1.06162648	         -0.64815740	          0.86457727	
          2.07000000	         -1.09808561	         -0.66576954	          0.84202072	
          2.08000000	         -1.08578646	         -0.65382974	          0.83414875	
          2.09000000	         -1.03685405	         -0.61788791	          0.83779483	
          2.10000000	         -0.96169219	         -0.56315516	          0.85018364	
          2.11000000	         -0.86524036	         -0.49190691	          0.87015557	
          2.12000000	         -0.74953587	         -0.40481940	          0.89738882	
          2.13000000	         -0.62032069	         -0.30534749	          0.93029076	
          2.14000000	         -0.49229042	         -0.20374121	          0.96432011	
          2.15000000	         -0.38914644	         -0.11777740	          0.99199968	
          2.16000000	         -0.33805933	         -0.06935749	          1.00472752	
          2.17000000	         -0.36059486	         -0.07788995	          0.99570145	
          2.18000000	         -0.46378250	         -0.15287394	          0.96276715	
          2.19000000	         -0.63583562	         -0.28925478	          0.90974229	
          2.20000000	         -0.84914368	         -0.46822668	          0.84539287	
          2.21000000	         -1.06867346	         -0.66281512	          0.78070787	
          2.22000000	         -1.26101872	         -0.84486780	          0.72603245	
          2.23000000	         -1.40048907	         -0.99043158	          0.68918765	
          2.24000000	         -1.47146865	         -1.08250265	          0.67476659	
          2.25000000	         -1.46805825	         -1.11161686	          0.68426213	
          2.26000000	         -1.39234998	         -1.07516949	          0.71661661	
          2.27000000	         -1.25230209	         -0.97617708	          0.76891181	
          2.28000000	         -1.05974576	         -0.82192980	          0.83703154	
          2.29000000	         -0.82879779	         -0.62282598	          0.91619643	
          2.30000000	         -0.57487000	         -0.39164256	          1.00129710	
          2.31000000	         -0.31437826	         -0.14342995	          1.08698067	
          2.32000000	         -0.06497045	          0.10405843	          1.16753694	
          2.33000000	          0.15426288	          0.32988925	          1.23674830	
          2.34000000	          0.32332808	          0.51021663	          1.28794759	
          2.35000000	          0.42328445	          0.62018099	          1.31453961	
          2.36000000	          0.43986922	          0.63805629	          1.31114459	
          2.37000000	          0.36818393	          0.55135211	          1.27524756	
          2.38000000	          0.21656214	          0.36285512	          1.20875341	
          2.39000000	          0.00693646	          0.09307523	          1.11845297	
          2.40000000	         -0.22952742	         -0.22322604	          1.01481057	
          2.41000000	         -0.45964830	         -0.54496327	          0.90959580	
          2.42000000	         -0.65521380	         -0.83369905	          0.81341411	
          2.43000000	         -0.79758600	         -1.06073010	          0.73392614	
          2.44000000	         -0.87864779	         -1.20977591	          0.67526399	
          2.45000000	         -0.89959251	         -1.27674415	          0.63825500	
          2.46000000	         -0.86867098	         -1.26787533	          0.62102392	
          2.47000000	         -0.79856873	         -1.19676468	          0.62000776	
          2.48000000	         -0.70347413	         -1.08052561	          0.63090809	
          2.49000000	         -0.59896618	         -0.94042452	          0.64870341	
          2.50000000	         -0.50332634	         -0.78419914	          0.68459548	
